<svg width="45" height="38" viewBox="0 0 45 38" fill="none" xmlns="http://www.w3.org/2000/svg">
<path fill-rule="evenodd" clip-rule="evenodd" d="M38.8948 10.4439C42.5669 13.3057 44.3763 17.2634 44.4423 21.8208C44.486 24.8382 43.9534 27.8039 42.5865 30.4098C41.8994 31.58 41.0319 32.6699 39.9597 33.6485C36.4979 36.8085 31.8524 37.9288 27.1082 37.9966C22.364 38.0644 17.6881 37.0774 14.1362 34.0178C12.5676 32.6666 11.4091 31.0786 10.5909 29.3422C8.83853 29.4468 7.04232 28.9397 5.55219 27.7794L5.55016 27.7778C1.87806 24.916 0.0686325 20.9584 0.00265147 16.4009C-0.0410323 13.3836 0.491876 10.4173 1.85875 7.81139C2.5459 6.6412 3.41308 5.55188 4.48522 4.57324C7.94708 1.41329 12.5925 0.292999 17.3367 0.225163C22.0809 0.157326 26.7569 1.14433 30.3088 4.20399C31.8773 5.55514 33.0358 7.14314 33.854 8.87954C35.6064 8.77491 37.4026 9.28207 38.8928 10.4423L38.8948 10.4439ZM7.97049 16.1791C7.97049 18.2905 8.63401 19.769 10.123 20.9739C10.7912 21.5147 10.8971 22.5008 10.3567 23.1729C9.81619 23.8449 8.83649 23.9496 8.16674 23.4073C5.93945 21.6022 4.85539 19.2392 4.85539 16.1791C4.85539 8.76023 9.05455 4.99843 17.3423 4.99843C25.63 4.99843 29.8307 8.76023 29.8307 16.1791C29.8307 19.2485 28.7467 21.6131 26.5162 23.4089C26.2297 23.6402 25.8854 23.7527 25.5428 23.7527C25.088 23.7527 24.6347 23.5526 24.3279 23.1682C23.789 22.4946 23.8965 21.51 24.5678 20.9708C26.0537 19.7737 26.7172 18.2952 26.7172 16.1791C26.7172 12.1954 25.6035 8.12414 17.3438 8.12414C9.08414 8.12414 7.97049 12.1969 7.97049 16.1791ZM33.6202 14.9569C34.1607 14.2865 35.1404 14.1786 35.8102 14.7225V14.721C38.0375 16.526 39.1215 18.8891 39.1215 21.9492C39.1215 29.368 34.9208 33.1298 26.6331 33.1298C18.3453 33.1298 14.1446 29.368 14.1446 21.9492C14.1446 18.8797 15.2287 16.5151 17.4591 14.7194C18.1288 14.1786 19.1101 14.2849 19.649 14.9601C20.1879 15.6337 20.0805 16.6183 19.4091 17.1574C17.9232 18.3546 17.2597 19.833 17.2597 21.9492C17.2597 25.9329 18.3734 30.0041 26.6331 30.0041C34.8928 30.0041 36.0064 25.9313 36.0064 21.9492C36.0064 19.8377 35.3429 18.3593 33.8539 17.1543C33.1857 16.6136 33.0798 15.629 33.6202 14.9569Z" fill="#2C46B1"/>
</svg>
